<?xml version="1.0" encoding="UTF-8"?>
<svg id="a" data-name="Layer 19" xmlns="http://www.w3.org/2000/svg" width="1440" height="1440" viewBox="0 0 1440 1440">
  <path d="M117.247,135.872v46.491c0,5.85,2.324,11.46,6.46,15.596l101.21,101.21c4.136,4.136,6.46,9.746,6.46,15.596v497.856c0,14.617,11.85,26.467,26.467,26.467h78.025c6.091,0,11.028,4.937,11.028,11.028v177.939c0,10.354,8.394,18.748,18.748,18.748h300.533c5.85,0,11.46,2.324,15.596,6.46l33.183,33.183c5.584,5.584,13.158,8.721,21.054,8.721h111.609c10.078,0,19.744-4.004,26.87-11.13l185.42-185.42c4.313-4.313,10.163-6.737,16.263-6.737h138.543c5.304,0,10.391-2.107,14.142-5.858l121.14-121.14" fill="none" stroke="#fff" stroke-miterlimit="10" stroke-width="8"/>
  <path d="M117.247,135.872v46.491c0,5.85,2.324,11.46,6.46,15.596l101.21,101.21c4.136,4.136,6.46,9.746,6.46,15.596v497.856c0,14.617,11.85,26.467,26.467,26.467h78.025c6.091,0,11.028,4.937,11.028,11.028v177.939c0,10.354,8.394,18.748,18.748,18.748h300.533c5.85,0,11.46,2.324,15.596,6.46l33.183,33.183c5.584,5.584,13.158,8.721,21.054,8.721h111.609c10.078,0,19.744-4.004,26.87-11.13l185.42-185.42c4.313-4.313,10.163-6.737,16.263-6.737h138.543c5.304,0,10.391-2.107,14.142-5.858l121.14-121.14" fill="none" stroke="#147cc1" stroke-miterlimit="10" stroke-width="5"/>
</svg>