<?xml version="1.0" encoding="UTF-8"?>
<svg id="a" data-name="Layer 19" xmlns="http://www.w3.org/2000/svg" width="1440" height="1440" viewBox="0 0 1440 1440">
  <g>
    <path d="M587.319,1011.46l113.14,113.14c5.063,5.063,11.931,7.908,19.092,7.908h113.793c6.63,0,12.989,2.634,17.678,7.322l193.68,193.68c5.858,5.858,5.858,15.355,0,21.213l-30.167,30.167" fill="none" stroke="#fff" stroke-miterlimit="10" stroke-width="8"/>
    <path d="M587.319,1011.46l113.14,113.14c5.063,5.063,11.931,7.908,19.092,7.908h113.793c6.63,0,12.989,2.634,17.678,7.322l193.68,193.68c5.858,5.858,5.858,15.355,0,21.213l-30.167,30.167" fill="none" stroke="#fed419" stroke-miterlimit="10" stroke-width="5"/>
  </g>
  <g>
    <path d="M563.47,348.331v207.645c0,6.091-4.937,11.028-11.028,11.028h-225.143c-6.091,0-11.028,4.937-11.028,11.028v83.615c0,9.067,3.602,17.762,10.013,24.174l102.371,102.371c2.068,2.068,3.23,4.873,3.23,7.798v79.325" fill="none" stroke="#fff" stroke-miterlimit="10" stroke-width="8"/>
    <path d="M563.47,348.331v207.645c0,6.091-4.937,11.028-11.028,11.028h-225.143c-6.091,0-11.028,4.937-11.028,11.028v83.615c0,9.067,3.602,17.762,10.013,24.174l102.371,102.371c2.068,2.068,3.23,4.873,3.23,7.798v79.325" fill="none" stroke="#fed419" stroke-miterlimit="10" stroke-width="5"/>
  </g>
  <g>
    <path d="M431.885,875.314v58.574c0,15.464,12.536,28,28,28h68.749c5.835,0,11.431,2.318,15.556,6.444l43.129,43.129" fill="none" stroke="#fff" stroke-miterlimit="10" stroke-width="8"/>
    <path d="M431.885,875.314v58.574c0,15.464,12.536,28,28,28h68.749c5.835,0,11.431,2.318,15.556,6.444l43.129,43.129" fill="none" stroke="#fed419" stroke-miterlimit="10" stroke-width="5"/>
  </g>
</svg>