<?xml version="1.0" encoding="UTF-8"?>
<svg id="a" data-name="Layer 19" xmlns="http://www.w3.org/2000/svg" width="1440" height="1440" viewBox="0 0 1440 1440">
  <path d="M150.498,353.34v172.128c0,4.243,1.686,8.313,4.686,11.314l155.595,155.595c3.516,3.516,5.491,8.284,5.491,13.257v297.943c0,10.354,8.394,18.748,18.748,18.748h200.742c6.091,0,11.028,4.937,11.028,11.028v29.425c0,7.691,3.055,15.068,8.494,20.506l60.437,60.437c5.626,5.626,13.257,8.787,21.213,8.787h329.928c5.304,0,10.391-2.107,14.142-5.858l174.071-174.071c3.751-3.751,8.838-5.858,14.142-5.858h30.774" fill="none" stroke="#fff" stroke-miterlimit="10" stroke-width="8"/>
  <path d="M150.498,353.34v172.128c0,4.243,1.686,8.313,4.686,11.314l155.595,155.595c3.516,3.516,5.491,8.284,5.491,13.257v297.943c0,10.354,8.394,18.748,18.748,18.748h200.742c6.091,0,11.028,4.937,11.028,11.028v29.425c0,7.691,3.055,15.068,8.494,20.506l60.437,60.437c5.626,5.626,13.257,8.787,21.213,8.787h329.928c5.304,0,10.391-2.107,14.142-5.858l174.071-174.071c3.751-3.751,8.838-5.858,14.142-5.858h30.774" fill="none" stroke="#e93437" stroke-miterlimit="10" stroke-width="5"/>
</svg>