<?xml version="1.0" encoding="UTF-8"?>
<svg id="a" data-name="Layer 19" xmlns="http://www.w3.org/2000/svg" width="1440" height="1440" viewBox="0 0 1440 1440">
  <path d="M246.973,319.77v299.638c0,10.354,8.394,18.748,18.748,18.748h93.543c6.091,0,11.028,4.937,11.028,11.028v226.51c0,18.881,15.306,34.187,34.187,34.187h135.449c4.144,0,8.243-.859,12.039-2.522l6.287-2.755c3.796-1.663,7.895-2.522,12.039-2.522h13.117" fill="none" stroke="#fff" stroke-miterlimit="10" stroke-width="8"/>
  <path d="M246.973,319.77v299.638c0,10.354,8.394,18.748,18.748,18.748h93.543c6.091,0,11.028,4.937,11.028,11.028v226.51c0,18.881,15.306,34.187,34.187,34.187h135.449c4.144,0,8.243-.859,12.039-2.522l6.287-2.755c3.796-1.663,7.895-2.522,12.039-2.522h13.117" fill="none" stroke="#f58320" stroke-miterlimit="10" stroke-width="5"/>
</svg>