<?xml version="1.0" encoding="UTF-8"?>
<svg id="a" data-name="Layer 19" xmlns="http://www.w3.org/2000/svg" width="1440" height="1440" viewBox="0 0 1440 1440">
  <g>
    <path d="M598.489,1000.795l112.452,112.452c2.438,2.438,5.745,3.808,9.192,3.808h83.406c10.493,0,19,8.507,19,19v158.529c0,5.304,2.107,10.391,5.858,14.142l66.967,66.967c3.751,3.751,8.838,5.858,14.142,5.858h77.747" fill="none" stroke="#fff" stroke-miterlimit="10" stroke-width="8"/>
    <path d="M598.489,1000.795l112.452,112.452c2.438,2.438,5.745,3.808,9.192,3.808h83.406c10.493,0,19,8.507,19,19v158.529c0,5.304,2.107,10.391,5.858,14.142l66.967,66.967c3.751,3.751,8.838,5.858,14.142,5.858h77.747" fill="none" stroke="#f58320" stroke-miterlimit="10" stroke-width="5"/>
  </g>
  <g>
    <path d="M522.079,68.588l-17.071,17.071c-1.875,1.875-2.929,4.419-2.929,7.071v185.275c0,6.091-4.937,11.028-11.028,11.028h-225.365c-6.091,0-11.028,4.937-11.028,11.028v319.269c0,6.091,4.937,11.028,11.028,11.028h93.655c10.354,0,18.748,8.394,18.748,18.748v226.51c0,14.617,11.85,26.467,26.467,26.467h122.363c7.124,0,12.921,5.734,12.999,12.858l.168,15.352c.086,7.842,3.239,15.339,8.785,20.884l49.618,49.618" fill="none" stroke="#fff" stroke-miterlimit="10" stroke-width="8"/>
    <path d="M522.079,68.588l-17.071,17.071c-1.875,1.875-2.929,4.419-2.929,7.071v185.275c0,6.091-4.937,11.028-11.028,11.028h-225.365c-6.091,0-11.028,4.937-11.028,11.028v319.269c0,6.091,4.937,11.028,11.028,11.028h93.655c10.354,0,18.748,8.394,18.748,18.748v226.51c0,14.617,11.85,26.467,26.467,26.467h122.363c7.124,0,12.921,5.734,12.999,12.858l.168,15.352c.086,7.842,3.239,15.339,8.785,20.884l49.618,49.618" fill="none" stroke="#f58320" stroke-miterlimit="10" stroke-width="5"/>
  </g>
</svg>