<?xml version="1.0" encoding="UTF-8"?>
<svg id="a" data-name="Layer 19" xmlns="http://www.w3.org/2000/svg" width="1440" height="1440" viewBox="0 0 1440 1440">
  <g>
    <path d="M681.66,1031.13l36.992,36.992c4.136,4.136,6.46,9.746,6.46,15.596v151.438c0,10.354,8.394,18.748,18.748,18.748h111.404c5.304,0,10.391,2.107,14.142,5.858l108.961,108.961c3.751,3.751,8.838,5.858,14.142,5.858h14.519" fill="none" stroke="#fff" stroke-miterlimit="10" stroke-width="8"/>
    <path d="M681.66,1031.13l36.992,36.992c4.136,4.136,6.46,9.746,6.46,15.596v151.438c0,10.354,8.394,18.748,18.748,18.748h111.404c5.304,0,10.391,2.107,14.142,5.858l108.961,108.961c3.751,3.751,8.838,5.858,14.142,5.858h14.519" fill="none" stroke="#f58320" stroke-miterlimit="10" stroke-width="5"/>
  </g>
  <g>
    <path d="M681.66,1031.13l-56-56c-3.751-3.751-5.858-8.838-5.858-14.142v-56.704c0-5.523-4.477-10-10-10h-41.044c-3.499,0-6.97-.612-10.258-1.808l-11.492-4.181c-3.288-1.196-6.759-1.808-10.258-1.808h-19.646" fill="none" stroke="#fff" stroke-miterlimit="10" stroke-width="8"/>
    <path d="M681.66,1031.13l-56-56c-3.751-3.751-5.858-8.838-5.858-14.142v-56.704c0-5.523-4.477-10-10-10h-41.044c-3.499,0-6.97-.612-10.258-1.808l-11.492-4.181c-3.288-1.196-6.759-1.808-10.258-1.808h-19.646" fill="none" stroke="#f58320" stroke-miterlimit="10" stroke-width="5"/>
  </g>
  <g>
    <path d="M516.415,886.487h-111.703c-6.091,0-11.028-4.937-11.028-11.028v-226.275c0-6.091,4.937-11.028,11.028-11.028h288.196c4.68,0,9.168-1.859,12.477-5.168l50.313-50.313c5.061-5.061,11.924-7.905,19.081-7.908l14.65-.006c5.304,0,10.39-2.108,14.14-5.858l33.132-33.132c5.063-5.063,11.931-7.908,19.092-7.908h320.616c5.304,0,10.391-2.107,14.142-5.858l82.444-82.444" fill="none" stroke="#fff" stroke-miterlimit="10" stroke-width="8"/>
    <path d="M516.415,886.487h-111.703c-6.091,0-11.028-4.937-11.028-11.028v-226.275c0-6.091,4.937-11.028,11.028-11.028h288.196c4.68,0,9.168-1.859,12.477-5.168l50.313-50.313c5.061-5.061,11.924-7.905,19.081-7.908l14.65-.006c5.304,0,10.39-2.108,14.14-5.858l33.132-33.132c5.063-5.063,11.931-7.908,19.092-7.908h320.616c5.304,0,10.391-2.107,14.142-5.858l82.444-82.444" fill="none" stroke="#f58320" stroke-miterlimit="10" stroke-width="5"/>
  </g>
</svg>