<?xml version="1.0" encoding="UTF-8"?>
<svg id="a" data-name="Layer 19" xmlns="http://www.w3.org/2000/svg" width="1440" height="1440" viewBox="0 0 1440 1440">
  <path d="M477.411,1119.736V331.085c0-6.091,4.937-11.028,11.028-11.028h118.356c10.354,0,18.748-8.394,18.748-18.748v-143.649c0-6.091,4.937-11.028,11.028-11.028h67.838c6.091,0,11.028-4.937,11.028-11.028V52.57" fill="none" stroke="#fff" stroke-miterlimit="10" stroke-width="8"/>
  <path d="M477.411,1119.736V331.085c0-6.091,4.937-11.028,11.028-11.028h118.356c10.354,0,18.748-8.394,18.748-18.748v-143.649c0-6.091,4.937-11.028,11.028-11.028h67.838c6.091,0,11.028-4.937,11.028-11.028V52.57" fill="none" stroke="#009150" stroke-miterlimit="10" stroke-width="5"/>
</svg>