<?xml version="1.0" encoding="UTF-8"?>
<svg id="a" data-name="Layer 19" xmlns="http://www.w3.org/2000/svg" width="1440" height="1440" viewBox="0 0 1440 1440">
  <path d="M617.745,51.707v249.524c0,6.091-4.937,11.028-11.028,11.028h-217.809c-6.091,0-11.028,4.937-11.028,11.028v117.043c0,6.091-4.937,11.028-11.028,11.028h-198.557c-5.523,0-10,4.477-10,10v63.779c0,2.387.948,4.676,2.636,6.364l155.385,155.385c4.964,4.964,7.752,11.696,7.752,18.715v297.897c0,6.091,4.937,11.028,11.028,11.028h200.742c10.354,0,18.748,8.394,18.748,18.748v29.15c0,5.85,2.324,11.46,6.46,15.596l60.246,60.246c4.126,4.126,9.722,6.444,15.556,6.444h313.671c5.304,0,10.391,2.107,14.142,5.858l94.142,94.142" fill="none" stroke="#fff" stroke-miterlimit="10" stroke-width="8"/>
  <path d="M617.745,51.707v249.524c0,6.091-4.937,11.028-11.028,11.028h-217.809c-6.091,0-11.028,4.937-11.028,11.028v117.043c0,6.091-4.937,11.028-11.028,11.028h-198.557c-5.523,0-10,4.477-10,10v63.779c0,2.387.948,4.676,2.636,6.364l155.385,155.385c4.964,4.964,7.752,11.696,7.752,18.715v297.897c0,6.091,4.937,11.028,11.028,11.028h200.742c10.354,0,18.748,8.394,18.748,18.748v29.15c0,5.85,2.324,11.46,6.46,15.596l60.246,60.246c4.126,4.126,9.722,6.444,15.556,6.444h313.671c5.304,0,10.391,2.107,14.142,5.858l94.142,94.142" fill="none" stroke="#e93437" stroke-miterlimit="10" stroke-width="5"/>
</svg>