<?xml version="1.0" encoding="UTF-8"?>
<svg id="a" data-name="Layer 19" xmlns="http://www.w3.org/2000/svg" width="1440" height="1440" viewBox="0 0 1440 1440">
  <path d="M515.153,1097.363v-160.782c0-6.091,4.937-11.028,11.028-11.028h472.308c7.956,0,15.587-3.161,21.213-8.787l169.701-169.701c5.626-5.626,8.787-13.257,8.787-21.213v-162.991c0-11.046,8.954-20,20-20h79.95" fill="none" stroke="#fff" stroke-miterlimit="10" stroke-width="8"/>
  <path d="M515.153,1097.363v-160.782c0-6.091,4.937-11.028,11.028-11.028h472.308c7.956,0,15.587-3.161,21.213-8.787l169.701-169.701c5.626-5.626,8.787-13.257,8.787-21.213v-162.991c0-11.046,8.954-20,20-20h79.95" fill="none" stroke="#b0752b" stroke-miterlimit="10" stroke-width="5"/>
</svg>