<?xml version="1.0" encoding="UTF-8"?>
<svg id="a" data-name="Layer 19" xmlns="http://www.w3.org/2000/svg" width="1440" height="1440" viewBox="0 0 1440 1440">
  <path d="M222.7,57.464v131.204c0,5.304-2.107,10.391-5.858,14.142l-68.284,68.284c-3.751,3.751-5.858,8.838-5.858,14.142v240.562c0,6.1,2.423,11.95,6.737,16.263l155.806,155.806c2.068,2.068,3.23,4.873,3.23,7.798v352.945c0,5.85,2.324,11.46,6.46,15.596l57.67,57.67" fill="none" stroke="#fff" stroke-miterlimit="10" stroke-width="8"/>
  <path d="M222.7,57.464v131.204c0,5.304-2.107,10.391-5.858,14.142l-68.284,68.284c-3.751,3.751-5.858,8.838-5.858,14.142v240.562c0,6.1,2.423,11.95,6.737,16.263l155.806,155.806c2.068,2.068,3.23,4.873,3.23,7.798v352.945c0,5.85,2.324,11.46,6.46,15.596l57.67,57.67" fill="none" stroke="#e93437" stroke-miterlimit="10" stroke-width="5"/>
</svg>