<?xml version="1.0" encoding="UTF-8"?>
<svg id="a" data-name="Layer 19" xmlns="http://www.w3.org/2000/svg" width="1440" height="1440" viewBox="0 0 1440 1440">
  <g>
    <path d="M680.692,704.233v115.34c0,5.85,2.324,11.46,6.46,15.596l72.297,72.297c8.273,8.273,12.92,19.493,12.92,31.192v136.061c0,6.198-2.615,12.109-7.201,16.279l-24.914,22.65c-4.586,4.169-7.201,10.08-7.201,16.279v105.011c0,6.091,4.937,11.028,11.028,11.028h111.104c7.161,0,14.028,2.845,19.092,7.908l17.182,17.182" fill="none" stroke="#fff" stroke-miterlimit="10" stroke-width="8"/>
    <path d="M680.692,704.233v115.34c0,5.85,2.324,11.46,6.46,15.596l72.297,72.297c8.273,8.273,12.92,19.493,12.92,31.192v136.061c0,6.198-2.615,12.109-7.201,16.279l-24.914,22.65c-4.586,4.169-7.201,10.08-7.201,16.279v105.011c0,6.091,4.937,11.028,11.028,11.028h111.104c7.161,0,14.028,2.845,19.092,7.908l17.182,17.182" fill="none" stroke="#7ec243" stroke-miterlimit="10" stroke-width="5"/>
  </g>
  <g>
    <line x1="680.692" y1="668.542" x2="680.692" y2="704.233" fill="none" stroke="#fff" stroke-miterlimit="10" stroke-width="7.5"/>
    <line x1="680.692" y1="668.542" x2="680.692" y2="704.233" fill="none" stroke="#7ec243" stroke-miterlimit="10" stroke-width="5"/>
  </g>
</svg>