<?xml version="1.0" encoding="UTF-8"?>
<svg id="a" data-name="Layer 19" xmlns="http://www.w3.org/2000/svg" width="1440" height="1440" viewBox="0 0 1440 1440">
  <g>
    <path d="M1094.693,512.267h-325.161c-10.354,0-18.748,8.394-18.748,18.748v28.75c0,8.284-6.715,14.999-14.998,15l-51.957.007" fill="none" stroke="#fff" stroke-miterlimit="10" stroke-width="8"/>
    <path d="M1094.693,512.267h-325.161c-10.354,0-18.748,8.394-18.748,18.748v28.75c0,8.284-6.715,14.999-14.998,15l-51.957.007" fill="none" stroke="#f58320" stroke-miterlimit="10" stroke-width="5"/>
  </g>
  <g>
    <path d="M517.105,894.285h-112.471c-10.354,0-18.748-8.394-18.748-18.748v-289.708c0-6.091,4.937-11.028,11.028-11.028l286.915-.03" fill="none" stroke="#fff" stroke-miterlimit="10" stroke-width="8"/>
    <path d="M517.105,894.285h-112.471c-10.354,0-18.748-8.394-18.748-18.748v-289.708c0-6.091,4.937-11.028,11.028-11.028l286.915-.03" fill="none" stroke="#f58320" stroke-miterlimit="10" stroke-width="5"/>
  </g>
  <g>
    <path d="M941.858,731.744l-87.235,87.235c-4.136,4.136-6.46,9.746-6.46,15.596v72.153c0,6.091-4.937,11.028-11.028,11.028h-268.065c-5.448,0-10.66-2.222-14.432-6.154l-9.114-9.564c-4.718-4.951-11.259-7.753-18.098-7.753h-16.927" fill="none" stroke="#fff" stroke-miterlimit="10" stroke-width="8"/>
    <path d="M941.858,731.744l-87.235,87.235c-4.136,4.136-6.46,9.746-6.46,15.596v72.153c0,6.091-4.937,11.028-11.028,11.028h-268.065c-5.448,0-10.66-2.222-14.432-6.154l-9.114-9.564c-4.718-4.951-11.259-7.753-18.098-7.753h-16.927" fill="none" stroke="#f58320" stroke-miterlimit="10" stroke-width="5"/>
  </g>
</svg>