<?xml version="1.0" encoding="UTF-8"?>
<svg id="a" data-name="Layer 19" xmlns="http://www.w3.org/2000/svg" width="1440" height="1440" viewBox="0 0 1440 1440">
  <g>
    <path d="M593.147,1006.261l112.591,112.591c3.751,3.751,8.838,5.858,14.142,5.858h83.885c6.075,0,11,4.925,11,11v234.234" fill="none" stroke="#fff" stroke-miterlimit="10" stroke-width="8"/>
    <path d="M593.147,1006.261l112.591,112.591c3.751,3.751,8.838,5.858,14.142,5.858h83.885c6.075,0,11,4.925,11,11v234.234" fill="none" stroke="#fed419" stroke-miterlimit="10" stroke-width="5"/>
  </g>
  <g>
    <path d="M439.683,875.314v-79.357c0-4.972-1.975-9.741-5.491-13.257l-102.371-102.371c-4.964-4.964-7.752-11.696-7.752-18.715v-41.497c0-14.617,11.85-26.467,26.467-26.467h350.924c6.091,0,11.028-4.937,11.028-11.028v-149.579" fill="none" stroke="#fff" stroke-miterlimit="10" stroke-width="8"/>
    <path d="M439.683,875.314v-79.357c0-4.972-1.975-9.741-5.491-13.257l-102.371-102.371c-4.964-4.964-7.752-11.696-7.752-18.715v-41.497c0-14.617,11.85-26.467,26.467-26.467h350.924c6.091,0,11.028-4.937,11.028-11.028v-149.579" fill="none" stroke="#fed419" stroke-miterlimit="10" stroke-width="5"/>
  </g>
  <g>
    <path d="M439.683,875.314v58.776c0,11.046,8.954,20,20,20h68.867c7.956,0,15.587,3.161,21.213,8.787l43.384,43.384" fill="none" stroke="#fff" stroke-miterlimit="10" stroke-width="8"/>
    <path d="M439.683,875.314v58.776c0,11.046,8.954,20,20,20h68.867c7.956,0,15.587,3.161,21.213,8.787l43.384,43.384" fill="none" stroke="#fed419" stroke-miterlimit="10" stroke-width="5"/>
  </g>
</svg>