<?xml version="1.0" encoding="UTF-8"?>
<svg id="a" data-name="Layer 19" xmlns="http://www.w3.org/2000/svg" width="1440" height="1440" viewBox="0 0 1440 1440">
  <g>
    <path d="M447.481,875.314v-79.39c0-7.02-2.788-13.752-7.752-18.715l-102.371-102.371c-3.516-3.516-5.491-8.284-5.491-13.257v-41.386c0-10.354,8.394-18.748,18.748-18.748h350.924c10.354,0,18.748-8.394,18.748-18.748v-149.657" fill="none" stroke="#fff" stroke-miterlimit="10" stroke-width="8"/>
    <path d="M447.481,875.314v-79.39c0-7.02-2.788-13.752-7.752-18.715l-102.371-102.371c-3.516-3.516-5.491-8.284-5.491-13.257v-41.386c0-10.354,8.394-18.748,18.748-18.748h350.924c10.354,0,18.748-8.394,18.748-18.748v-149.657" fill="none" stroke="#fed419" stroke-miterlimit="10" stroke-width="5"/>
  </g>
  <g>
    <path d="M383.47,1120.688l-12.853-12.853c-7.321-7.321-7.321-19.192,0-26.513l70.127-70.127c4.313-4.313,6.737-10.163,6.737-16.263v-119.619" fill="none" stroke="#fff" stroke-miterlimit="10" stroke-width="8"/>
    <path d="M383.47,1120.688l-12.853-12.853c-7.321-7.321-7.321-19.192,0-26.513l70.127-70.127c4.313-4.313,6.737-10.163,6.737-16.263v-119.619" fill="none" stroke="#fed419" stroke-miterlimit="10" stroke-width="5"/>
  </g>
</svg>