<?xml version="1.0" encoding="UTF-8"?>
<svg id="a" data-name="Layer 19" xmlns="http://www.w3.org/2000/svg" width="1440" height="1440" viewBox="0 0 1440 1440">
  <g>
    <path d="M630.267,1177.416h56.521c5.523,0,10-4.477,10-10v-101.222" fill="none" stroke="#fff" stroke-miterlimit="10" stroke-width="7.5"/>
    <path d="M630.267,1177.416h56.521c5.523,0,10-4.477,10-10v-101.222" fill="none" stroke="#fed419" stroke-miterlimit="10" stroke-width="5"/>
  </g>
  <g>
    <path d="M1094.693,520.065h-325.083c-6.091,0-11.028,4.937-11.028,11.028v28.557c0,5.835-2.318,11.431-6.444,15.556l-42.248,42.998c-3.772,3.932-8.984,6.155-14.433,6.155h-31.321c-5.304,0-10.391-2.107-14.142-5.858l-3.397-3.397c-3.751-3.751-8.838-5.858-14.142-5.858h-281.764c-6.091,0-11.028,4.937-11.028,11.028v41.275c0,2.925,1.162,5.73,3.23,7.798l102.371,102.371c6.411,6.411,10.013,15.107,10.013,24.174v79.422" fill="none" stroke="#fff" stroke-miterlimit="10" stroke-width="8"/>
    <path d="M1094.693,520.065h-325.083c-6.091,0-11.028,4.937-11.028,11.028v28.557c0,5.835-2.318,11.431-6.444,15.556l-42.248,42.998c-3.772,3.932-8.984,6.155-14.433,6.155h-31.321c-5.304,0-10.391-2.107-14.142-5.858l-3.397-3.397c-3.751-3.751-8.838-5.858-14.142-5.858h-281.764c-6.091,0-11.028,4.937-11.028,11.028v41.275c0,2.925,1.162,5.73,3.23,7.798l102.371,102.371c6.411,6.411,10.013,15.107,10.013,24.174v79.422" fill="none" stroke="#fed419" stroke-miterlimit="10" stroke-width="5"/>
  </g>
  <g>
    <path d="M455.279,875.314v119.949c0,7.956-3.161,15.587-8.787,21.213l-70.305,70.305c-4.307,4.307-4.307,11.289,0,15.596l66.252,66.252c5.626,5.626,13.257,8.787,21.213,8.787h173.615" fill="none" stroke="#fff" stroke-miterlimit="10" stroke-width="8"/>
    <path d="M455.279,875.314v119.949c0,7.956-3.161,15.587-8.787,21.213l-70.305,70.305c-4.307,4.307-4.307,11.289,0,15.596l66.252,66.252c5.626,5.626,13.257,8.787,21.213,8.787h173.615" fill="none" stroke="#fed419" stroke-miterlimit="10" stroke-width="5"/>
  </g>
</svg>