<?xml version="1.0" encoding="UTF-8"?>
<svg id="a" data-name="Layer 19" xmlns="http://www.w3.org/2000/svg" width="1440" height="1440" viewBox="0 0 1440 1440">
  <path d="M239.175,319.77v492.772c0,10.354,8.394,18.748,18.748,18.748h78.025c10.354,0,18.748,8.394,18.748,18.748v177.939c0,6.091,4.937,11.028,11.028,11.028h300.487c7.897,0,15.47,3.137,21.054,8.721l33.183,33.183c4.136,4.136,9.746,6.46,15.596,6.46h111.66c7.956,0,15.587-3.161,21.213-8.787l185.776-185.776c5.626-5.626,13.257-8.787,21.213-8.787h111.973" fill="none" stroke="#fff" stroke-miterlimit="10" stroke-width="8"/>
  <path d="M239.175,319.77v492.772c0,10.354,8.394,18.748,18.748,18.748h78.025c10.354,0,18.748,8.394,18.748,18.748v177.939c0,6.091,4.937,11.028,11.028,11.028h300.487c7.897,0,15.47,3.137,21.054,8.721l33.183,33.183c4.136,4.136,9.746,6.46,15.596,6.46h111.66c7.956,0,15.587-3.161,21.213-8.787l185.776-185.776c5.626-5.626,13.257-8.787,21.213-8.787h111.973" fill="none" stroke="#147cc1" stroke-miterlimit="10" stroke-width="5"/>
</svg>