<?xml version="1.0" encoding="UTF-8"?>
<svg id="a" data-name="Layer 19" xmlns="http://www.w3.org/2000/svg" width="1440" height="1440" viewBox="0 0 1440 1440">
  <path d="M389.953,982.756h-16.432c-6.091,0-11.028-4.937-11.028-11.028v-121.769c0-14.617-11.85-26.467-26.467-26.467h-78.025c-6.091,0-11.028-4.937-11.028-11.028v-155.482c0-6.091,4.937-11.028,11.028-11.028h434.483c7.02,0,13.752-2.788,18.715-7.752l49.142-49.142c4.136-4.136,9.746-6.46,15.596-6.46h13.779c7.161,0,14.028-2.845,19.092-7.908l33.173-33.173c3.751-3.751,8.838-5.858,14.142-5.858h434.331" fill="none" stroke="#fff" stroke-miterlimit="10" stroke-width="8"/>
  <path d="M389.953,982.756h-16.432c-6.091,0-11.028-4.937-11.028-11.028v-121.769c0-14.617-11.85-26.467-26.467-26.467h-78.025c-6.091,0-11.028-4.937-11.028-11.028v-155.482c0-6.091,4.937-11.028,11.028-11.028h434.483c7.02,0,13.752-2.788,18.715-7.752l49.142-49.142c4.136-4.136,9.746-6.46,15.596-6.46h13.779c7.161,0,14.028-2.845,19.092-7.908l33.173-33.173c3.751-3.751,8.838-5.858,14.142-5.858h434.331" fill="none" stroke="#147cc1" stroke-miterlimit="10" stroke-width="5"/>
</svg>